<svg width="19" height="17" viewBox="0 0 19 17" fill="none" xmlns="http://www.w3.org/2000/svg">
<path d="M9.16667 3.89165C11.4667 3.89165 13.3333 5.75831 13.3333 8.05831C13.3333 8.48331 13.25 8.89165 13.1333 9.27498L15.6833 11.825C16.8417 10.8 17.7583 9.51665 18.3333 8.04998C16.8917 4.39998 13.3333 1.80831 9.16667 1.80831C8.10833 1.80831 7.09167 1.97498 6.13333 2.28331L7.94167 4.09165C8.33333 3.97498 8.74167 3.89165 9.16667 3.89165ZM1.425 1.10831C1.1 1.43331 1.1 1.95831 1.425 2.28331L3.06667 3.92498C1.71667 4.99998 0.641667 6.41665 0 8.05831C1.44167 11.7166 5 14.3083 9.16667 14.3083C10.4333 14.3083 11.6417 14.0583 12.7583 13.625L15.025 15.8916C15.35 16.2166 15.875 16.2166 16.2 15.8916C16.525 15.5666 16.525 15.0416 16.2 14.7166L2.60833 1.10831C2.28333 0.783313 1.75 0.783313 1.425 1.10831ZM9.16667 12.225C6.86667 12.225 5 10.3583 5 8.05831C5 7.41665 5.15 6.80831 5.40833 6.27498L6.71667 7.58331C6.69167 7.73331 6.66667 7.89165 6.66667 8.05831C6.66667 9.44165 7.78333 10.5583 9.16667 10.5583C9.33333 10.5583 9.48333 10.5333 9.64167 10.5L10.95 11.8083C10.4083 12.075 9.80833 12.225 9.16667 12.225ZM11.6417 7.78331C11.5167 6.61665 10.6 5.70831 9.44167 5.58331L11.6417 7.78331Z" fill="#96A397"/>
</svg>
